<?xml version="1.0" encoding="utf-8"?>
<!-- Generator: Adobe Illustrator 24.0.1, SVG Export Plug-In . SVG Version: 6.00 Build 0)  -->
<svg version="1.1" id="Layer_1" xmlns="http://www.w3.org/2000/svg" xmlns:xlink="http://www.w3.org/1999/xlink" x="0px" y="0px"
	 viewBox="0 0 404.1 109.7" style="enable-background:new 0 0 404.1 109.7;" xml:space="preserve">
<style type="text/css">
	.st0{fill:#1C4E8D;}
	.st1{fill:#82B852;}
	.st2{fill:#FFFFFF;}
	.st3{fill:none;stroke:#003DA6;stroke-width:0.53;stroke-miterlimit:3.86;}
	.st4{fill:#003DA6;}
	.st5{fill:url(#SVGID_1_);}
	.st6{fill:url(#SVGID_2_);}
	.st7{fill:url(#SVGID_3_);}
	.st8{fill:#231F20;}
</style>
<title>Ihub_logo</title>
<g id="Layer_2_1_">
	<g id="Layer_1-2">
		<path class="st0" d="M401.5,91.9L401.5,91.9l-0.1-0.1c-2.1-2.1-2.1-5.4,0-7.5c0.8-0.8,1.7-1.3,2.8-1.5c-0.1-2.2-0.4-4.4-1-6.5
			c-1.5,0.3-3-0.1-4.1-1.2c-0.1-0.1-0.1-0.1-0.2-0.2l0,0l-0.1-0.1c-2-2-2.1-5.3-0.1-7.4c-1.3-1.7-2.9-3.3-4.6-4.6
			c-0.8,0.7-1.7,1.2-2.7,1.4c-1.5,0.4-3.2,0-4.3-1.1l-0.2-0.2l0,0l-0.2-0.2c-1.2-1.1-1.8-2.7-1.6-4.3c-2.1-0.6-4.3-0.9-6.6-1
			c-0.5,2.1-2.1,3.7-4.3,4.1c-1.5,0.4-3.2,0-4.4-1.1c0-0.1-0.1-0.1-0.2-0.2l0,0l-0.2-0.2c-0.3-0.3-0.6-0.7-0.9-1.1
			c-2,0.7-3.9,1.7-5.6,2.9c0.8,2,0.4,4.3-1.1,5.8c-0.8,0.8-1.8,1.3-2.8,1.5c-1,0.3-2.1,0.2-3.1-0.2c0,0,0,0.1-0.1,0.1l0,0
			c-1.2,1.8-2.2,3.8-2.9,5.8c0.3,0.2,0.6,0.5,0.9,0.7c2.1,2.1,2.1,5.4,0,7.5c-0.5,0.5-1.1,0.9-1.8,1.2l-0.5,0.2c0,0.1,0,0.2,0,0.3
			l0,0c0,0.3,0,0.6-0.1,0.8v0.1c-0.3,2.2-0.9,4.4-1.9,6.4l0,0l-0.3,0.5c-1.6,2.8-3.8,5.2-6.5,6.9l-0.5,0.3l0,0
			c-1.9,1.1-3.9,1.9-6,2.3l-0.3,0.1H336c-1.1,0.2-2.1,0.3-3.2,0.3c-4.7,0-9.3-1.7-12.8-4.8l-0.1-0.1l-0.2-0.2
			c-0.9-0.9-1.7-1.8-2.5-2.8c-1.8-2.6-3-5.6-3.4-8.8l-0.1-1l0,0c0-0.4,0-0.7,0-1.1s0-0.7,0-1c0-0.1,0-0.1,0-0.2v-0.1
			c0-0.2,0-0.5,0.1-0.7c0,0,0-0.1,0-0.1v-0.1c0-0.2,0.1-0.5,0.1-0.8v-0.2c0-0.3,0.1-0.5,0.1-0.8v-0.1c0.1-0.3,0.1-0.6,0.2-0.9l0,0
			c0.1-0.3,0.2-0.6,0.3-0.9l0,0c0.1-0.3,0.2-0.6,0.3-0.9l0,0c0.1-0.3,0.2-0.6,0.3-0.8c1.3-2.9,3.3-5.5,5.9-7.5
			c0.6-0.5,1.3-0.9,2-1.3h0.1c2-1.1,4.1-1.9,6.4-2.3l0,0l0.7-0.1l1-0.1v0.7c0,0.3,0.2,0.6,0.6,0.6c0.3,0,0.5-0.2,0.5-0.6v-9
			c0-0.3-0.2-0.6-0.5-0.6c-0.3,0-0.6,0.2-0.6,0.6l0,0v0.9c-3.3,0.2-6.5,1-9.5,2.4l0,0l-0.9,0.5h-0.1c-0.3,0.2-0.6,0.3-0.9,0.5
			l-0.1,0.1c-1.5,0.9-2.9,1.9-4.2,3l-0.2,0.2l-0.6,0.6l-0.2,0.2l-0.6,0.6l-0.2,0.2l-0.5,0.6l-0.2,0.2l-0.1,0.2l-0.4,0.5
			c0,0.1-0.1,0.1-0.1,0.2l-0.1,0.1c-0.3,0.4-0.6,0.8-0.9,1.2l-0.1,0.1l-0.1,0.2c-0.1,0.1-0.2,0.3-0.3,0.4l-0.1,0.2
			c-0.1,0.1-0.2,0.2-0.2,0.4l-0.3,0.5v0.1l-0.3,0.5l-0.3,0.5l-0.3,0.6c-0.1,0.2-0.2,0.3-0.2,0.5s-0.2,0.4-0.3,0.6l0,0.1l-0.2,0.4
			c-0.1,0.2-0.2,0.5-0.3,0.7l-0.1,0.2c0,0.1-0.1,0.2-0.1,0.2c-0.1,0.4-0.3,0.8-0.4,1.1c0,0.1,0,0.1,0,0.2V76
			c-0.1,0.3-0.2,0.6-0.2,0.9c0,0.1,0,0.2-0.1,0.3v0.2c-0.1,0.2-0.1,0.5-0.2,0.8s-0.1,0.3-0.1,0.5s-0.1,0.5-0.1,0.8s0,0.3-0.1,0.5
			s-0.1,0.5-0.1,0.8v0.1c0,0.1,0,0.3,0,0.4l-0.1,0.8V82c0,0.1,0,0.2,0,0.2c0,0.5,0,0.9,0,1.3c0,14.5,11.8,26.3,26.3,26.3h0.1
			c0.4,0,0.7,0,1.1,0h0.3l1.1-0.1h0.3l0.9-0.1h0.3c0.4-0.1,0.7-0.1,1.1-0.2l0.3-0.1c0.3-0.1,0.6-0.1,0.9-0.2l0.2-0.1l1-0.3l0.4-0.1
			c0.3-0.1,0.7-0.2,1-0.3l0.2-0.1h0.1c0.3-0.1,0.5-0.2,0.8-0.3h0.1l0.2-0.1l0.9-0.4l0.4-0.2l0.7-0.4h0.1l0.3-0.1l0.8-0.5l0.4-0.2
			c0.2-0.2,0.5-0.3,0.7-0.5s0.3-0.2,0.4-0.3l0.6-0.4l0,0l0.3-0.2c0.2-0.2,0.5-0.4,0.7-0.6l0.3-0.3h0.1l0.5-0.4
			c0.1-0.1,0.3-0.3,0.5-0.4l0.5-0.5c0.1-0.1,0.2-0.2,0.4-0.4l0.4-0.4l0.5-0.6c0.1-0.2,0.2-0.3,0.4-0.4l0.3-0.4l0.5-0.7l0.3-0.4v-0.1
			c0.1-0.1,0.2-0.3,0.3-0.4s0.3-0.4,0.4-0.6l0,0l0.2-0.4l0,0c2.6-4.2,4-9,4.2-14c0-0.4,0.1-1.7,0.1-2.1v-0.2v-0.3
			c0.3-4.1,2.1-7.9,5-10.8c7.8-7,19.8-6.4,26.8,1.4c6.5,7.2,6.5,18.2,0,25.5c-2.9,2.8-6.6,4.6-10.5,5.3c-0.7,0.1-1.4,0.2-2.1,0.2
			h-0.7c-0.3,0-0.6,0-0.9,0c-3.8-0.1-7.5-1.4-10.5-3.7l-0.6-0.5c-2.4-2-4.2-4.4-5.5-7.2c-0.7,2.7-1.8,5.3-3.3,7.6l0.2,0.2v0.1
			c1,1.4,2.1,2.8,3.3,4c0.4,0.4,0.9,0.8,1.3,1.2c0.9-0.7,2-1,3.1-1c2.9,0,5.3,2.4,5.3,5.3l0,0c2,0.4,4.1,0.7,6.1,0.7
			c0.6-2.9,3.5-4.7,6.4-4c1,0.2,1.9,0.7,2.6,1.4c0.3,0.3,0.6,0.7,0.9,1.2c2.1-0.7,4-1.7,5.9-2.9c-1.1-2.7,0.2-5.8,2.9-6.9
			c1.3-0.5,2.8-0.5,4.1,0.1c1.3-1.8,2.3-3.7,3-5.8c-0.3-0.2-0.5-0.4-0.7-0.6L401.5,91.9z"/>
		<path class="st1" d="M352.8,79.1c0,1-0.8,1.9-1.9,1.9c-1,0-1.9-0.8-1.9-1.9c0-1,0.8-1.9,1.9-1.9c0,0,0,0,0.1,0
			C352,77.3,352.8,78.1,352.8,79.1z"/>
		<path class="st1" d="M351,69.4c0,1.5-1.2,2.7-2.7,2.7c-1.5,0-2.7-1.2-2.7-2.7c0-1.5,1.2-2.7,2.7-2.7l0,0
			C349.8,66.7,351,67.9,351,69.4z"/>
		<path class="st1" d="M344.3,61.3c0,2.6-2.1,4.6-4.6,4.6s-4.6-2.1-4.6-4.6c0-2.6,2.1-4.6,4.6-4.6c0,0,0,0,0,0
			C342.2,56.7,344.3,58.7,344.3,61.3z"/>
		<polygon class="st1" points="390.2,78.8 387,73.9 380.8,77.9 380.8,70.6 374.9,70.6 374.9,77.9 368.7,73.9 365.5,78.8 372.4,83.4 
			365.5,87.9 368.7,92.8 374.9,88.8 374.9,96.2 380.8,96.2 380.8,88.8 387,92.8 390.2,87.9 383.2,83.4 		"/>
		<path class="st0" d="M3.1,9.4c-1.6,0-2.9-1.3-2.9-2.9s1.3-2.9,2.9-2.9C4.7,3.6,6,4.9,6,6.5C6,8.1,4.7,9.3,3.1,9.4z M5.1,45.4h-4
			V17.3h4.1L5.1,45.4z"/>
		<path class="st0" d="M19.7,17.3c0.1,1.5,0.2,3.6,0.2,4.8h0.1c1.6-3.2,5.6-5.5,9.6-5.5c7.1,0,10.7,4.6,10.7,11.6v17.2h-4.1V29.8
			c0-5.9-1.7-9.8-7.6-9.8c-4.3,0-8.5,3.5-8.5,11v14.4H16V23.5c0-1.5-0.1-4.3-0.2-6.2L19.7,17.3z"/>
		<path class="st0" d="M54.6,17.3c0.1,1.5,0.2,3.6,0.2,4.8h0.1c1.6-3.2,5.6-5.5,9.6-5.5c7.1,0,10.7,4.6,10.7,11.6v17.2h-4.1V29.8
			c0-5.9-1.7-9.8-7.6-9.8c-4.3,0-8.5,3.5-8.5,11v14.4h-4.1V23.5c0-1.5-0.1-4.3-0.2-6.2L54.6,17.3z"/>
		<path class="st0" d="M98.7,46.1c-8.7,0-14.9-6.3-14.9-14.8S90,16.6,98.7,16.6s15,6.3,15,14.8S107.4,46.1,98.7,46.1z M98.7,20
			C92.2,20,88,25,88,31.3s4.2,11.3,10.7,11.3s10.7-5,10.7-11.3S105.2,20,98.7,20L98.7,20z"/>
		<path class="st0" d="M133.9,45.4h-4.5L118,17.3h4.6l9.1,23.7h0.1l9.2-23.7h4.4L133.9,45.4z"/>
		<path class="st0" d="M169.4,27.2c0-4.9-2.6-7.3-7.5-7.3c-3.1,0-6.1,1.2-8.3,3.3l-2.3-2.7c3-2.7,7-4.1,11-4
			c6.1,0,10.9,3.4,10.9,10.2v12.3c0,2.1,0.1,4.2,0.5,6.3H170c-0.3-1.5-0.4-3-0.4-4.6h-0.1c-2.2,3.5-6.1,5.5-10.2,5.3
			c-4.3,0-9.7-2.3-9.7-8.5c0-8.6,9.5-9.4,19.8-9.4L169.4,27.2z M168.2,31.3c-6.7,0-14.4,0.7-14.4,6.1c0,4,3.4,5.3,6.6,5.3
			c5.8,0,9-4.3,9-9.3v-2.1L168.2,31.3z"/>
		<path class="st0" d="M195.8,20.7h-7.9v16.4c0,4.2,1.7,5.2,4.2,5.2c1.2,0,2.4-0.3,3.5-0.9l0.2,3.5c-1.5,0.6-3.2,0.9-4.8,0.8
			c-3,0-7.2-1.3-7.2-7.5V20.7H178v-3.4h5.8V9.4h4.1v7.9h7.9L195.8,20.7z"/>
		<path class="st0" d="M204.3,9.4c-1.6,0-2.9-1.3-2.9-2.9c0-1.6,1.3-2.9,2.9-2.9s2.9,1.3,2.9,2.9c0,0,0,0,0,0
			C207.1,8.1,205.8,9.3,204.3,9.4z M206.3,45.4h-4.1V17.3h4.1V45.4z"/>
		<path class="st0" d="M230.1,46.1c-8.7,0-14.9-6.3-14.9-14.8s6.2-14.8,14.9-14.8s15,6.3,15,14.8S238.8,46.1,230.1,46.1z M230.1,20
			c-6.5,0-10.6,5-10.6,11.3s4.1,11.3,10.6,11.3s10.7-5,10.7-11.3S236.6,20,230.1,20L230.1,20z"/>
		<path class="st0" d="M257.5,17.3c0.1,1.5,0.2,3.6,0.2,4.8h0.1c1.6-3.2,5.6-5.5,9.6-5.5c7.1,0,10.7,4.6,10.7,11.6v17.2H274V29.8
			c0-5.9-1.7-9.8-7.6-9.8c-4.3,0-8.5,3.5-8.5,11v14.4h-4.1V23.5c0-1.5-0.1-4.3-0.2-6.2L257.5,17.3z"/>
		<path class="st1" d="M308,21.9c1.5-3.2,5.5-5.3,9.4-5.3c7.1,0,10.7,4.6,10.7,11.6v17.2H324V29.8c0-5.9-1.7-9.8-7.6-9.8
			c-4.3,0-8.5,3.5-8.5,11v14.4h-4.1V0h4.1v21.9H308z"/>
		<path class="st1" d="M359.1,45.4c-0.1-1.5-0.2-3.6-0.2-4.8h-0.1c-1.6,3.2-5.6,5.5-9.6,5.5c-7.1,0-10.7-4.6-10.7-11.6V17.3h4.1
			v15.5c0,5.9,1.7,9.8,7.6,9.8c4.3,0,8.5-3.5,8.5-11V17.3h4.1v21.9c0,1.5,0.1,4.3,0.2,6.2H359.1z"/>
		<path class="st1" d="M377.7,40.6v4.7h-4.1V0h4.1v22.1h0.1c2.4-3.5,6.4-5.6,10.6-5.6c8.8,0,14.5,6.4,14.5,14.8s-5.8,14.8-14.5,14.8
			c-4.2,0-8.2-2-10.6-5.5L377.7,40.6z M388,20c-6.3,0-10.8,4.9-10.8,11.3s4.5,11.3,10.8,11.3c6.8,0,10.6-5,10.6-11.3
			S394.8,20,388,20z"/>
		<path class="st2" d="M14.8,109.3C0.4,101.8,0.3,91.5,0.3,75.5h29C29.3,91.5,29.2,101.8,14.8,109.3"/>
		<path class="st3" d="M14.8,109.3C0.4,101.8,0.3,91.5,0.3,75.5h29C29.3,91.5,29.2,101.8,14.8,109.3z"/>
		<path class="st4" d="M28.3,76.5H1.2v1.4c0,6,0,11.7,1.7,16.9c0.8,2.7,2.2,5.2,4,7.3c2.2,2.5,4.9,4.5,7.8,6l0,0l0,0
			c3-1.5,5.6-3.5,7.8-6c1.8-2.1,3.2-4.6,4-7.3c1.7-5.2,1.7-11,1.7-17L28.3,76.5z"/>
		<path class="st2" d="M9,81c-0.2-0.1-0.5-0.2-0.7-0.2c0.2,0,0.3-0.1,0.5-0.2c0.2-0.1,0.4-0.3,0.5-0.5c0.1-0.2,0.2-0.4,0.2-0.7
			c0-0.2-0.1-0.4-0.2-0.6c-0.1-0.2-0.3-0.4-0.6-0.4c-0.3-0.1-0.7-0.2-1.1-0.1H6.9H5.7H5.1H4.8v0.5c0.2,0,0.4,0,0.6,0.1l0,0
			c0,0.3,0,0.5,0,0.8c0,0.6,0,1,0,1.3c0,1,0,1.7,0,2.2c0,0.2,0,0.3,0,0.4c-0.1,0.1-0.2,0.2-0.4,0.2V84H6h1.4l0,0
			c0.3,0,0.6,0,0.9-0.1c0.2-0.1,0.5-0.2,0.7-0.4c0.2-0.2,0.4-0.4,0.5-0.6c0.1-0.2,0.2-0.5,0.2-0.8c0-0.3-0.1-0.5-0.2-0.7
			C9.4,81.2,9.2,81.1,9,81z M6.8,79.4c0-0.2,0-0.4,0-0.6h0.4c0.2,0,0.4,0,0.5,0.1C7.9,78.9,8,79,8,79.1c0.1,0.1,0.1,0.3,0.1,0.5
			c0,0.2,0,0.3-0.1,0.5c0,0.1-0.1,0.2-0.2,0.3c-0.1,0.1-0.2,0.1-0.3,0.1c-0.2,0-0.3,0-0.5,0H6.8L6.8,79.4z M8.1,83.1
			c-0.2,0.2-0.5,0.3-0.8,0.3H6.8v-2.3h0.2c0.2,0,0.5,0,0.7,0.1c0.2,0.1,0.3,0.2,0.4,0.3C8.4,82.1,8.4,82.7,8.1,83.1L8.1,83.1z"/>
		<path class="st2" d="M24.2,79.3c0-0.2,0-0.4,0-0.5l0,0h0.1h0.5v-0.5h-1.5c-0.4,0-1.2,0-1.2,0v0.5h0.6h0.1l0,0c0,0,0,0.2,0,0.6
			c0,0.1,0,0.4,0,0.8v0.4c-0.2,0-0.7,0-1.4,0h-1.1v-0.4c0-0.5,0-0.9,0-1.2c0-0.1,0-0.2,0-0.2h0.1h0.5h0.1v-0.5c0,0-0.8,0-1.2,0
			s-1,0-1.4,0H17h-1v0.5h0.6c0,0,0.1,0,0.1,0c0,0,0,0.1,0,0.1c0,0,0,0.1,0,0.1c0,0.2-0.1,0.6-0.3,1.3l-0.4,1.6l-0.4-1
			c-0.1-0.2-0.4-0.9-0.8-1.9c-0.1-0.2-0.2-0.5-0.3-0.8H14l-0.2,0.5l-0.6,1.5l-0.5,1.2l-0.2,0.6l-0.3-1.4l-0.2-1.1
			C12,79.1,12,79,12,78.9c0,0,0-0.1,0-0.1c0,0,0-0.1,0-0.1c0,0,0.1,0,0.1,0h0.5v-0.5h-1.4H10v0.5c0.2,0,0.3,0,0.5,0
			c0,0,0.1,0.1,0.1,0.1c0.1,0.3,0.2,0.6,0.2,0.8l1,4.4h0.7l0.4-1.1c0.6-1.5,1-2.4,1.2-2.8l1,2.7l0.5,1.2h0.7c0-0.2,0.2-0.9,0.5-2
			s0.5-1.9,0.7-2.4s0.2-0.8,0.3-0.8c0,0,0.1-0.1,0.1-0.1c0.1,0,0.2,0,0.3,0h0.8c0.1,0,0.1,0,0.1,0c0,0,0,0,0,0.1
			c0,0.2,0.1,0.4,0,0.6v3.5c0,0.2,0,0.4,0,0.5l0,0h-0.1h-0.5V84c0.5,0,1,0,1.5,0s0.9,0,1.2,0v-0.5h-0.6h-0.1l0,0c0,0,0-0.2,0-0.6
			c0-0.1,0-0.4,0-0.8v-0.8h0.2h1.2c0.6,0,0.9,0,1.1,0V82c0,0.5,0,0.9,0,1.2c0,0.1,0,0.2,0,0.2c0,0,0,0-0.1,0s-0.6,0-0.6,0V84
			c0,0,0.8,0,1.2,0H25v-0.5h-0.5h-0.1l0,0c0-0.2,0-0.4,0-0.6v-0.8v-2L24.2,79.3z"/>
		
			<linearGradient id="SVGID_1_" gradientUnits="userSpaceOnUse" x1="-1217.3678" y1="-351.261" x2="-1205.7478" y2="-359.371" gradientTransform="matrix(-0.9065 -0.4221 -0.4221 0.9065 -1238.0248 -95.5241)">
			<stop  offset="3.000000e-02" style="stop-color:#FFFFFF"/>
			<stop  offset="0.25" style="stop-color:#FFFFFF"/>
			<stop  offset="0.34" style="stop-color:#FBFCFE"/>
			<stop  offset="0.42" style="stop-color:#EFF3F9"/>
			<stop  offset="0.51" style="stop-color:#DAE3F2"/>
			<stop  offset="0.6" style="stop-color:#BDCDE8"/>
			<stop  offset="0.69" style="stop-color:#98B1DB"/>
			<stop  offset="0.78" style="stop-color:#6B8ECB"/>
			<stop  offset="0.87" style="stop-color:#3666B9"/>
			<stop  offset="0.95" style="stop-color:#003DA6"/>
		</linearGradient>
		<path class="st5" d="M7.9,100.7c0.4,0.5,0.8,1,1.3,1.5c2.1-0.4,4-1.4,5.6-2.8c-0.8-0.7-1.4-1.4-2-2.2c-2.4-3.5-2.9-7.9-1.3-11.9
			c0,0,0.2-0.3,0.2-0.4c-2.4,0.5-4.6,1.8-6.2,3.8C4.1,92.7,5.4,97.5,7.9,100.7z"/>
		
			<linearGradient id="SVGID_2_" gradientUnits="userSpaceOnUse" x1="-5164.4648" y1="14812.0859" x2="-5152.8452" y2="14803.9756" gradientTransform="matrix(0.82 -0.57 -0.57 -0.82 12689.1299 9293.54)">
			<stop  offset="3.000000e-02" style="stop-color:#FFFFFF"/>
			<stop  offset="0.25" style="stop-color:#FFFFFF"/>
			<stop  offset="0.34" style="stop-color:#FBFCFE"/>
			<stop  offset="0.42" style="stop-color:#EFF3F9"/>
			<stop  offset="0.51" style="stop-color:#DAE3F2"/>
			<stop  offset="0.6" style="stop-color:#BDCDE8"/>
			<stop  offset="0.69" style="stop-color:#98B1DB"/>
			<stop  offset="0.78" style="stop-color:#6B8ECB"/>
			<stop  offset="0.87" style="stop-color:#3666B9"/>
			<stop  offset="0.95" style="stop-color:#003DA6"/>
		</linearGradient>
		<path class="st6" d="M13.2,85.9c-0.7,0.1-1.3,0.2-2,0.4c-0.7,2-0.8,4.2-0.4,6.3c0.9-0.3,1.9-0.5,2.9-0.6c4.2-0.4,8.3,1.4,10.9,4.8
			c0.1,0.1,0.2,0.2,0.2,0.3c0.8-2.4,0.7-4.9-0.2-7.2C22,86.6,17.2,85.4,13.2,85.9z"/>
		
			<linearGradient id="SVGID_3_" gradientUnits="userSpaceOnUse" x1="-16361.709" y1="3835.0479" x2="-16349.9531" y2="3826.8362" gradientTransform="matrix(9.000000e-02 1 1 -9.000000e-02 -2342.2 16798.8613)">
			<stop  offset="3.000000e-02" style="stop-color:#FFFFFF"/>
			<stop  offset="0.25" style="stop-color:#FFFFFF"/>
			<stop  offset="0.34" style="stop-color:#FBFCFE"/>
			<stop  offset="0.42" style="stop-color:#EFF3F9"/>
			<stop  offset="0.51" style="stop-color:#DAE3F2"/>
			<stop  offset="0.6" style="stop-color:#BDCDE8"/>
			<stop  offset="0.69" style="stop-color:#98B1DB"/>
			<stop  offset="0.78" style="stop-color:#6B8ECB"/>
			<stop  offset="0.87" style="stop-color:#3666B9"/>
			<stop  offset="0.95" style="stop-color:#003DA6"/>
		</linearGradient>
		<path class="st7" d="M23.4,97.9c0.2-0.6,0.5-1.2,0.6-1.9c-1.4-1.6-3.2-2.8-5.2-3.5c-0.2,1-0.5,1.9-0.9,2.8c-1.8,3.8-5.4,6.5-9.6,7
			H7.8c1.7,1.8,3.9,3,6.3,3.4C18.4,105.2,21.8,101.6,23.4,97.9z"/>
		<path class="st8" d="M44,96.6l-1.7-4.4L40,97.9c-0.2,0.4-0.3,0.9-0.5,1.3h-0.7c-0.1-0.5-0.2-0.9-0.3-1.3l-1.6-6.7
			c-0.1-0.6-0.4-0.6-0.7-0.7h-0.4v-0.4c0.6,0,1.1,0,1.7,0s1.1,0,1.7,0v0.4h-0.6c-0.3,0-0.6,0.1-0.4,0.8l1.3,5.8l0,0l1.7-4
			c0.4-1,0.8-2.1,1.2-3.1h0.4c0.2,0.6,0.3,1.1,0.5,1.6l2.1,5.6l0,0l1.8-6.3c0.1-0.3-0.1-0.4-0.6-0.4h-0.5v-0.4c0.5,0,0.9,0,1.4,0
			s1,0,1.4,0v0.4h-0.4c-0.2,0-0.4,0.1-0.5,0.4L46,98c-0.1,0.4-0.3,0.9-0.4,1.3h-0.7C44.6,98.3,44.3,97.5,44,96.6 M53.4,90.5
			c-2.3,0-3.4,1.6-3.4,3.7c0,2.3,1.1,4.7,3.8,4.7c2.2,0,3.3-1.7,3.3-4.1C57.1,92.2,55.9,90.5,53.4,90.5 M48.5,94.7
			c0-2.7,1.9-4.7,5.1-4.7c2.9,0,4.9,1.6,4.9,4.4c0,2.8-2.3,5-5.1,5c0,0-0.1,0-0.1,0c-2.5,0.1-4.6-1.8-4.7-4.3
			C48.6,94.9,48.6,94.8,48.5,94.7L48.5,94.7z M69.7,91.8c0-0.3,0-0.7,0.1-1c0.1-0.1,0.2-0.2,0.6-0.2H71v-0.4c-0.4,0-0.8,0-1.3,0
			s-0.8,0-1.3,0l-3.5,7.2l-3.5-7.2c-0.4,0-0.8,0-1.3,0s-0.9,0-1.3,0v0.4h0.6c0.3,0,0.5,0.1,0.6,0.2c0.1,0.3,0.1,0.7,0.1,1v5.8
			c0,0.3,0,0.7-0.1,1c-0.1,0.1-0.2,0.2-0.6,0.2h-0.6v0.4c0.5,0,1.1,0,1.6,0s1,0,1.6,0v-0.4h-0.6c-0.3,0-0.5-0.1-0.6-0.2
			c-0.1-0.3-0.2-0.7-0.1-1v-5.9l0,0l3.7,7.6h0.3c0.2-0.6,0.5-1.1,0.7-1.7l2.4-4.9c0.2-0.3,0.4-0.7,0.6-1.1l0,0v5.9
			c0,0.3,0,0.7-0.1,1c-0.1,0.1-0.2,0.2-0.6,0.2h-0.4v0.4c0.5,0,1.1,0,1.8,0s1.3,0,2,0v-0.4h-0.7c-0.3,0-0.5-0.1-0.6-0.2
			c-0.1-0.3-0.2-0.7-0.1-1L69.7,91.8 M73.2,97.6c0,0.3,0,0.7-0.1,1c-0.1,0.1-0.2,0.2-0.6,0.2H72v0.4c0.5,0,0.9,0,1.4,0
			c0.8,0,1.9,0,2.9,0s2.1,0,2.7,0c0-0.7,0.1-1.4,0.3-2.1h-0.5c-0.1,0.8-0.3,1.3-0.5,1.4c-0.9,0.2-1.8,0.2-2.7,0.2
			c-0.4,0-0.8,0-1.1-0.1v-3.6c0.4,0,0.9,0,1.6,0c0.5,0,1,0,1.4,0.2c0.1,0,0.1,0.2,0.1,0.3l0.1,0.8h0.4c0-0.5,0-1,0-1.4s0-1,0-1.5
			h-0.4l-0.1,0.7c0,0.2,0,0.3-0.1,0.3c-0.5,0.1-0.9,0.2-1.4,0.1c-0.7,0-1.1,0-1.6,0v-3.5c0.4-0.1,0.8-0.1,1.1-0.1
			c0.9,0,1.8,0.1,2.6,0.3c0.1,0,0.1,0.2,0.1,0.3v0.8h0.5c0-0.7,0.1-1.3,0.2-2c-0.5,0-1.1,0-1.7,0c-0.8,0-2,0-3.2,0
			c-0.8,0-1.5,0-2.3,0v0.4h0.6c0.3,0,0.5,0.1,0.6,0.2c0.1,0.3,0.2,0.7,0.1,1L73.2,97.6 M81.4,97.5c0,0.3,0,0.7-0.1,1
			c-0.1,0.1-0.2,0.2-0.6,0.2h-0.6v0.4c0.6,0,1.1,0,1.6,0s1,0,1.6,0v-0.4h-0.6c-0.3,0-0.5-0.1-0.6-0.2c-0.1-0.3-0.2-0.7-0.1-1v-6l0,0
			l6.3,7.6l1.2,0.2c0-0.2,0-0.3,0-0.5v-7.1c0-0.3,0-0.7,0.1-1c0.1-0.1,0.2-0.2,0.6-0.2h0.6v-0.4c-0.6,0-1.1,0-1.6,0s-1,0-1.6,0v0.4
			h0.6c0.3,0,0.5,0.1,0.6,0.2c0.1,0.3,0.2,0.7,0.1,1v6.1l0,0l-6.4-7.7c-0.2,0-0.5,0-0.7,0c-0.5,0-1,0-1.6,0v0.4h0.6
			c0.3,0,0.5,0.1,0.6,0.2c0.1,0.3,0.2,0.7,0.1,1L81.4,97.5 M92.1,93c0.7-0.9,1.3-1.9,1.7-2.9l-0.2-0.2c-0.4,0.1-0.9,0.3-1.3,0.4
			c-0.1,1-0.4,2-1,2.9l0.2,0.1L92.1,93 M100.2,92.3c0-0.6,0.1-1.2,0.2-1.8c-0.8-0.3-1.6-0.5-2.4-0.5c-1.6,0-3.4,0.9-3.4,2.9
			c0,1.3,0.8,2,3,2.2c1.4,0.2,2.4,0.5,2.4,1.7c-0.1,1.2-1.1,2.1-2.3,2c0,0,0,0-0.1,0c-1.1,0-2.1-0.5-2.2-1L95,96.9h-0.4
			c0,0.7,0,1.3-0.1,2c0.7,0.3,1.5,0.5,2.3,0.5c2,0,4.1-1.1,4.1-3.3c0-1.5-1.2-1.9-3.1-2.1c-1.7-0.2-2.2-0.7-2.2-1.6
			c0-1,0.8-1.9,1.9-1.9c0,0,0.1,0,0.1,0c0.5,0,1,0.1,1.5,0.3c0.5,0.3,0.6,0.4,0.6,0.8l0.1,0.8L100.2,92.3 M38.5,77.2v3.2
			c0.2,0,0.5,0,1,0c1.2,0,2.2-0.5,2.2-1.8s-0.9-1.5-2-1.5C39.3,77.1,38.9,77.1,38.5,77.2 M38.6,85c0.4,0.1,0.8,0.1,1.1,0.1
			c1.2,0.2,2.3-0.7,2.4-1.9c0-0.1,0-0.2,0-0.4c0-1.4-0.9-2-2.7-2c-0.4,0-0.7,0-0.9,0V85z M37.3,78.2c0-0.3,0-0.7-0.1-1
			c-0.1-0.1-0.2-0.2-0.6-0.2h-0.5v-0.4H38c0.8,0,1.5,0,2.6,0c1.3,0,2.4,0.4,2.4,1.8c0,1.2-1.2,1.9-2.3,2.1l0,0
			c1.4,0,2.7,0.6,2.7,2.1c0,1.3-1,3.1-3.9,3c-0.5,0-1,0-1.5,0s-1,0-1.5,0v-0.3l0.3-0.1c0.2-0.1,0.3-0.5,0.3-0.8L37.3,78.2z
			 M55.8,77.2c0.1-0.1,0.2-0.2,0.6-0.2l0.7,0v-0.4c-0.7,0-1.3,0-2,0s-1.3,0-2,0V77h0.6c0.3,0,0.5,0.1,0.6,0.2c0.1,0.3,0.2,0.7,0.1,1
			V84c0,0.3,0,0.7-0.1,1c-0.1,0.1-0.2,0.2-0.6,0.2h-1c-0.3,0-0.5-0.1-0.7-0.3L48.9,81c1.3-0.2,2.6-1.1,2.6-2.5c0-0.9-0.6-2-2.7-2
			c-0.8,0-1.6,0-2.4,0s-1.6,0-2.3,0V77h0.5c0.3,0,0.5,0.1,0.6,0.2c0.1,0.3,0.2,0.7,0.1,1V84c0,0.3,0,0.7-0.1,1
			c-0.1,0.1-0.2,0.2-0.6,0.2H44v0.4c0.7,0,1.3,0,2,0s1.3,0,2,0v-0.4h-0.6c-0.3,0-0.5-0.1-0.6-0.2c-0.1-0.3-0.2-0.7-0.1-1v-6.7
			c0.4-0.1,0.9-0.2,1.3-0.2c1,0,2.1,0.4,2.1,1.8c-0.1,0.9-0.8,1.7-1.8,1.8c-0.4,0-0.8,0-1.2,0l-0.1,0.2c0.2,0.3,0.5,0.5,0.7,0.8
			l2.5,3.2c0.2,0.2,0.4,0.5,0.6,0.7h1c0.8,0,2.7,0,3.1,0c0.6,0,1.3,0,2,0v-0.4h-0.7c-0.3,0-0.5-0.1-0.6-0.2c-0.1-0.3-0.2-0.7-0.1-1
			v-5.8C55.6,77.9,55.6,77.5,55.8,77.2L55.8,77.2z M65.4,84.3c0,0.2,0,0.4-0.1,0.5c-0.1,0.2-0.8,0.4-1.9,0.4
			c-2.3,0.1-4.2-1.6-4.3-3.8c0-0.2,0-0.4,0-0.6c-0.2-2,1.3-3.7,3.3-3.9c0.2,0,0.4,0,0.6,0c0.6,0,1.3,0.1,1.9,0.2
			c0.6,0.2,1.1,0.4,1.1,1v0.7h0.4c0-0.7,0.1-1.3,0.3-2c-1.1-0.3-2.2-0.5-3.3-0.5c-3.2,0-5.7,1.8-5.7,4.7c0,3.3,2.4,4.8,5.4,4.8
			c1.2-0.1,2.4-0.3,3.5-0.7V83c0-0.4,0-0.4,0.2-0.5l0.4-0.1v-0.3h-1.7h-1.7v0.4l1.1,0.1c0.3,0,0.5,0.2,0.5,0.4L65.4,84.3 M99.6,85.2
			v0.4c-0.7,0-1.3,0-2,0s-1.3,0-1.8,0v-0.4h0.4c0.3,0,0.5-0.1,0.6-0.2c0.1-0.3,0.2-0.7,0.1-1v-5.8l0,0c-0.2,0.3-0.4,0.7-0.6,1.1
			L94,84.1c-0.3,0.5-0.5,1.1-0.7,1.6H93l-3.7-7.6l0,0V84c0,0.3,0,0.7,0.1,1c0.1,0.1,0.2,0.2,0.6,0.2h0.6v0.4c-0.6,0-1.1,0-1.6,0
			s-0.6,0-1.2,0s-1.2,0-1.8,0s-1.1,0-1.8,0v-0.4h0.6c0.3,0,0.6-0.1,0.6-0.3c-0.1-0.3-0.1-0.6-0.3-0.8l-0.6-1.5h-3.9l-0.4,0.9
			c-0.2,0.4-0.4,0.9-0.5,1.3c0,0.3,0.2,0.3,0.7,0.4h0.5v0.4c-0.6,0-1.2,0-1.6,0s-1,0-1.5,0c-0.7,0-0.8,0-1.4,0s-1.3,0-2,0v-0.4H75
			c0.3,0,0.5-0.1,0.6-0.2c0.1-0.3,0.2-0.7,0.1-1v-2.8c-0.2,0-0.5,0-1.1,0h-3.1c-0.6,0-1,0-1.1,0V84c0,0.3,0,0.7,0.1,1
			c0.1,0.1,0.2,0.2,0.6,0.2h0.7v0.4c-0.7,0-1.3,0-2,0s-1.3,0-2,0v-0.4h0.7c0.3,0,0.5-0.1,0.6-0.2c0.1-0.3,0.2-0.7,0.1-1v-5.8
			c0-0.3,0-0.7-0.1-1c-0.1-0.1-0.2-0.2-0.6-0.2h-0.7v-0.4c0.7,0,1.3,0,2,0s1.2,0,2,0V77H71c-0.3,0-0.5,0.1-0.6,0.2
			c-0.1,0.3-0.2,0.7-0.1,1v2.3c0.2,0,0.5,0,1.1,0h3.2c0.6,0,1,0,1.1,0v-2.3c0-0.3,0-0.7-0.1-1C75.5,77.1,75.3,77,75,77h-0.7v-0.4
			c0.7,0,1.3,0,2,0s1.3,0,2,0V77h-0.7c-0.3,0-0.5,0.1-0.6,0.2c-0.1,0.3-0.2,0.7-0.1,1V84c0,0.3,0,0.7,0.1,1c0.1,0.1,0.6,0.2,0.6,0.2
			h0.6c0.3-0.1,0.6-0.3,0.7-0.6l2.4-5.3c0.4-0.9,0.9-1.9,1.2-2.8H83l3.3,7.4c0.1,0.3,0.3,0.6,0.4,0.9s0.3,0.4,0.5,0.4h0.6
			c0.3,0,0.5-0.1,0.6-0.2c0.1-0.3,0.2-0.7,0.1-1v-5.8c0-0.3,0-0.7-0.1-1c-0.1-0.1-0.2-0.2-0.6-0.2h-0.6v-0.4c0.4,0,0.8,0,1.3,0
			s0.9,0,1.3,0l3.6,7.2l3.6-7.2c0.4,0,0.8,0,1.3,0s0.9,0,1.2,0V77H99c-0.3,0-0.5,0.1-0.6,0.2c-0.1,0.3-0.2,0.7-0.1,1V84
			c0,0.3,0,0.7,0.1,1c0.1,0.1,0.2,0.2,0.6,0.2L99.6,85.2z M84.2,82.1l-1.7-3.9l-1.7,3.9H84.2z M132.4,80.6c0,2-1.1,3.8-2.9,4.6
			c-0.9,0.4-1.9,0.5-2.9,0.5c-0.5,0-1.1,0-1.7,0s-1.2,0-1.8,0v-0.3l0.4-0.2c0.2-0.2,0.4-0.5,0.3-0.8v-6.2c0-0.3,0-0.7-0.1-1
			c-0.1-0.1-0.2-0.2-0.6-0.2h-0.5h-0.7c-0.3,0-0.5,0.1-0.6,0.2c-0.1,0.3-0.2,0.7-0.1,1v7.2c0,0.2,0,0.3,0,0.5l-1.2-0.2l-6.3-7.6l0,0
			v6c0,0.3,0,0.7,0.1,1c0.1,0.1,0.2,0.2,0.6,0.2h0.6v0.4c-0.6,0-1.1,0-1.6,0s-0.6,0-1.2,0s-0.9,0-1.5,0s-1.1,0-1.8,0v-0.4h0.6
			c0.3,0,0.6-0.1,0.6-0.3c-0.1-0.3-0.1-0.6-0.3-0.8l-0.6-1.5h-3.9l-0.4,0.9c-0.2,0.4-0.4,0.9-0.5,1.3c0,0.3,0.2,0.3,0.7,0.4h0.5v0.4
			c-0.7,0-1.2,0-1.6,0s-1,0-1.6,0v-0.4h0.5c0.3-0.1,0.6-0.3,0.7-0.6l2.4-5.3c0.4-0.9,0.9-1.9,1.2-2.8h0.4l3.3,7.3
			c0.1,0.3,0.3,0.6,0.4,0.9s0.3,0.4,0.5,0.4h0.4c0.3,0,0.5-0.1,0.6-0.2c0.1-0.3,0.2-0.7,0.1-1v-5.8c0-0.3,0-0.7-0.1-1
			c-0.1-0.1-0.2-0.2-0.6-0.2h-0.6v-0.4c0.6,0,1.1,0,1.6,0c0.2,0,0.5,0,0.7,0l6.4,7.7l0,0v-6.1c0-0.3,0-0.7-0.1-1
			c-0.1-0.1-0.2-0.2-0.6-0.2h-0.6v-0.4c0.5,0,1.1,0,1.6,0s1.2,0,1.8,0c0.9,0,1.8,0,2.7,0s1.8,0,2.3,0
			C130.4,76.6,132.4,78.1,132.4,80.6z M108.9,82.1l-1.7-3.9l-1.7,3.9H108.9z M131,80.9c0-3.2-1.9-3.8-4.3-3.8c-0.5,0-1,0-1.5,0.1V85
			c0.5,0.1,1,0.1,1.5,0.1c0.7,0,1.5-0.1,2.2-0.4C130.3,84.1,131.2,82.5,131,80.9z M114.3,91.7c0-0.3,0-0.7,0.1-1
			c0.1-0.1,0.2-0.2,0.6-0.2h0.7v-0.4c-0.7,0-1.3,0-2,0s-1.3,0-2,0v0.4h0.7c0.3,0,0.5,0.1,0.6,0.2c0.1,0.3,0.2,0.7,0.1,1V94
			c-0.2,0-0.5,0-1.1,0h-3.1c-0.6,0-1,0-1.1,0v-2.3c0-0.3,0-0.7,0.1-1c0.1-0.1,0.2-0.2,0.6-0.2h0.7v-0.4c-0.7,0-1.3,0-2,0s-1.3,0-2,0
			v0.4h0.7c0.3,0,0.5,0.1,0.6,0.2c0.1,0.3,0.2,0.7,0.1,1v5.8c0,0.3,0,0.7-0.1,1c-0.1,0.1-0.2,0.2-0.6,0.2H105v0.4c0.7,0,1.3,0,2,0
			s1.3,0,2,0v-0.4h-0.7c-0.3,0-0.5-0.1-0.6-0.2c-0.1-0.3-0.2-0.7-0.1-1v-2.8c0.2,0,0.5,0,1.1,0h3.1c0.6,0,1,0,1.1,0v2.9
			c0,0.3,0,0.7-0.1,1c-0.1,0.1-0.2,0.2-0.6,0.2h-0.7v0.4c0.7,0,1.3,0,2,0s1.3,0,2,0v-0.4H115c-0.3,0-0.5-0.1-0.6-0.2
			c-0.1-0.3-0.2-0.7-0.1-1V91.7 M121.1,90.5c-2.3,0-3.4,1.6-3.4,3.7c0,2.3,1.1,4.7,3.8,4.7c2.2,0,3.3-1.7,3.3-4.1
			C124.8,92.2,123.6,90.5,121.1,90.5 M116.2,94.7c0-2.7,1.9-4.7,5.1-4.7c2.9,0,4.9,1.6,4.9,4.4c0,2.8-2.3,5-5.1,5c0,0-0.1,0-0.1,0
			c-2.5,0.2-4.6-1.7-4.8-4.2C116.2,95,116.2,94.8,116.2,94.7L116.2,94.7z M132.9,92.3c0-0.6,0.1-1.2,0.2-1.8
			c-0.8-0.3-1.6-0.5-2.4-0.5c-1.6,0-3.4,0.9-3.4,2.9c0,1.3,0.8,2,2.9,2.2c1.4,0.2,2.4,0.5,2.4,1.7c-0.1,1.2-1.1,2.1-2.3,2
			c0,0,0,0-0.1,0c-1.1,0-2.1-0.5-2.2-1l-0.1-0.9h-0.4c0,0.7,0,1.3-0.1,2c0.7,0.3,1.5,0.5,2.3,0.5c2,0,4.1-1.1,4.1-3.3
			c0-1.5-1.2-1.9-3.1-2.1c-1.7-0.2-2.2-0.7-2.2-1.6c0-1,0.8-1.9,1.9-1.9c0,0,0.1,0,0.1,0c0.5,0,1,0.1,1.5,0.3
			c0.5,0.3,0.6,0.4,0.6,0.8l0.1,0.8L132.9,92.3 M136.9,90.8c0.5-0.1,0.9-0.2,1.4-0.2c1.3,0,2.2,0.6,2.2,1.9c0,1.1-0.8,1.9-1.9,1.9
			c0,0,0,0-0.1,0c-0.3,0-0.6,0-0.9-0.1l0.1,0.5c0.3,0,0.5,0.1,0.8,0.1c1.7,0.1,3.1-1.1,3.2-2.8c0,0,0,0,0,0c0-1.5-1.5-2-2.8-2
			c-0.7,0-1.5,0-2.3,0s-1.5,0-2.4,0v0.4h0.6c0.3,0,0.5,0.1,0.6,0.2c0.1,0.3,0.2,0.6,0.1,0.9v5.8c0,0.3,0,0.7-0.1,1
			c-0.1,0.1-0.2,0.2-0.6,0.2h-0.6v0.4c0.7,0,1.3,0,2,0s1.2,0,1.9,0v-0.4h-0.6c-0.3,0-0.5-0.1-0.6-0.2c-0.1-0.3-0.2-0.7-0.1-1
			L136.9,90.8 M145.1,91.7c0-0.3,0-0.7,0.1-1c0.1-0.1,0.2-0.2,0.6-0.2h0.6v-0.4c-0.7,0-1.3,0-2,0s-1.3,0-2,0v0.4h0.6
			c0.3,0,0.5,0.1,0.6,0.2c0.1,0.3,0.2,0.7,0.1,1v5.8c0,0.3,0,0.7-0.1,1c-0.1,0.1-0.2,0.2-0.6,0.2h-0.6v0.4c0.7,0,1.3,0,2,0
			s1.2,0,2,0v-0.4h-0.6c-0.3,0-0.5-0.1-0.6-0.2c-0.1-0.3-0.2-0.7-0.1-1V91.7 M150.6,97.6c0,0.3,0,0.7-0.1,1
			c-0.1,0.1-0.2,0.2-0.6,0.2h-0.6v0.4c0.7,0,1.3,0,2,0s1.2,0,1.9,0v-0.4h-0.6c-0.3,0-0.5-0.1-0.6-0.2c-0.1-0.3-0.1-0.7-0.1-1v-5.5
			c0-0.4,0-0.9,0-1.3h2.1c0.4,0,0.5,0.1,0.5,0.4l0.1,1h0.4c0-0.7,0-1.4,0.1-2.1c-1,0-1.9,0-2.9,0h-1.9c-1,0-1.9,0-2.9,0
			c0.1,0.7,0.1,1.4,0.1,2.1h0.4l0.1-1c0-0.3,0.1-0.4,0.5-0.4h2.1c0,0.4,0.1,0.9,0.1,1.3L150.6,97.6 M171.5,96.9
			c-0.1,0.7-0.2,1.6-0.3,2.2c-0.6,0-1.6,0-2.6,0c-1.2,0-2.1,0-2.9,0H164h-0.2c-0.5,0-1.1,0-1.6,0s-1.1,0-1.8,0v-0.4h0.6
			c0.3,0,0.6-0.1,0.6-0.3c-0.1-0.3-0.2-0.6-0.3-0.8l-0.6-1.5h-3.9l-0.4,0.9c-0.2,0.4-0.4,0.9-0.5,1.3c0,0.3,0.2,0.3,0.6,0.4h0.5v0.4
			c-0.6,0-1.2,0-1.6,0s-1,0-1.5,0v-0.4h0.5c0.3-0.1,0.6-0.3,0.7-0.6l2.4-5.3c0.4-0.9,0.9-1.9,1.2-2.8h0.4l3.3,7.4
			c0.1,0.2,0.3,0.6,0.4,0.9c0.1,0.2,0.3,0.4,0.5,0.4h0.4c0.3,0,0.6,0,0.8-0.1c0.2-0.2,0.4-0.5,0.3-0.8v-6.1c0-0.3,0-0.7-0.1-1
			c-0.1-0.1-0.2-0.2-0.6-0.2h-0.6v-0.4c0.7,0,1.3,0,2,0s1.2,0,2,0v0.4h-0.6c-0.3,0-0.5,0.1-0.6,0.2c-0.1,0.3-0.2,0.7-0.1,1v6.8
			c0.4,0.1,0.8,0.1,1.1,0.1c1,0.1,2,0,3-0.2c0.1-0.3,0.2-0.5,0.3-0.8l0.2-0.7L171.5,96.9z M160.5,95.6l-1.7-3.9l-1.7,3.9H160.5z"/>
		<path class="st4" d="M0.3,60.7h3c1.4,0,3,0.3,3,2.1c0,0.9-0.6,1.6-1.4,1.8l0,0c1,0.1,1.8,1,1.8,2c0,1.7-1.6,2.3-3.1,2.3H0.3V60.7z
			 M2.1,64h1.3c0.5,0,1.1-0.2,1.1-0.9s-0.7-0.8-1.2-0.8H2.1V64z M2.1,67.4h1.6c0.6,0,1.2-0.2,1.2-1S4,65.5,3.4,65.5H2.1V67.4z
			 M9.7,60.7h3.1c1.7,0,3.1,0.6,3.1,2.5c0.1,1.1-0.7,2.1-1.8,2.2l2.1,3.4h-2.1l-1.7-3.3h-0.9v3.3H9.7V60.7z M11.5,64.1h1.1
			c0.6,0,1.5,0,1.5-0.9s-0.7-0.9-1.4-0.9h-1.2V64.1z M18.7,60.7h1.8v8.1h-1.8V60.7z M31.3,68.3c-1.1,0.5-2.2,0.8-3.4,0.8
			c-2.4,0-4.3-1.9-4.3-4.3c0-2.4,1.9-4.3,4.3-4.3l0,0c1.2-0.1,2.3,0.3,3.2,1L29.8,63c-0.5-0.5-1.3-0.8-2-0.8
			c-1.4,0.1-2.6,1.3-2.5,2.8c0.1,1.3,1.1,2.4,2.5,2.5c0.6,0,1.2-0.1,1.7-0.4v-1.3h-1.4V64h3.2L31.3,68.3z M34.9,60.7h1.8v3h3.5v-3
			H42v8.2h-1.8v-3.5h-3.5v3.5h-1.8V60.7z M47.6,60.7H49l3.5,8.2h-2l-0.7-1.7h-3.2L46,68.9h-2L47.6,60.7z M48.2,63.1l-1,2.5h2
			L48.2,63.1z M54.7,60.7h2.7l1.9,5.3l0,0l1.9-5.3h2.7v8.2H62v-6.2l0,0l-2.1,6.2h-1.4l-2.1-6.2l0,0v6.2h-1.8L54.7,60.7z M72.4,60.7
			h1.8v3h3.5v-3h1.8v8.2h-1.8v-3.5h-3.5v3.5h-1.8V60.7z M83.6,60.7h5.5v1.7h-3.7v1.5h3.5v1.7h-3.5v1.7h3.9v1.7h-5.7V60.7z
			 M95.2,60.7h1.5l3.6,8.2h-2l-0.7-1.7h-3.2l-0.7,1.7h-2L95.2,60.7z M95.9,63.1l-1,2.5h2L95.9,63.1z M102.6,60.7h1.8v6.5h3.3v1.7
			h-5.1V60.7z M110.3,62.3h-2.3v-1.6h6.4v1.6H112v6.6h-1.8L110.3,62.3z M116.8,60.7h1.8v3h3.5v-3h1.8v8.2h-1.8v-3.5h-3.5v3.5h-1.8
			V60.7z"/>
	</g>
</g>
</svg>
