<svg xmlns="http://www.w3.org/2000/svg" xmlns:xlink="http://www.w3.org/1999/xlink" viewBox="0 0 404.1 109.69"><defs><style>.cls-1{fill:#1c4e8d;}.cls-2{fill:#82b852;}.cls-3{fill:#fff;}.cls-4{fill:none;stroke:#003da6;stroke-miterlimit:3.86;stroke-width:0.53px;}.cls-5{fill:#003da6;}.cls-6{fill:url(#linear-gradient);}.cls-7{fill:url(#linear-gradient-2);}.cls-8{fill:url(#linear-gradient-3);}.cls-9{fill:#231f20;}</style><linearGradient id="linear-gradient" x1="430.17" y1="1066.49" x2="441.79" y2="1074.6" gradientTransform="translate(-46.38 1248.33) rotate(-155.03)" gradientUnits="userSpaceOnUse"><stop offset="0.03" stop-color="#fff"/><stop offset="0.25" stop-color="#fff"/><stop offset="0.34" stop-color="#fbfcfe"/><stop offset="0.42" stop-color="#eff3f9"/><stop offset="0.51" stop-color="#dae3f2"/><stop offset="0.6" stop-color="#bdcde8"/><stop offset="0.69" stop-color="#98b1db"/><stop offset="0.78" stop-color="#6b8ecb"/><stop offset="0.87" stop-color="#3666b9"/><stop offset="0.95" stop-color="#003da6"/></linearGradient><linearGradient id="linear-gradient-2" x1="-4685.78" y1="-15047.03" x2="-4674.16" y2="-15038.92" gradientTransform="matrix(0.82, -0.57, 0.57, 0.82, 12485.67, 9720.31)" xlink:href="#linear-gradient"/><linearGradient id="linear-gradient-3" x1="-16221.86" y1="-2511.09" x2="-16210.25" y2="-2502.98" gradientTransform="matrix(0.09, 1, -1, 0.09, -1057.33, 16472.22)" xlink:href="#linear-gradient"/></defs><title>Ihub_logo</title><g id="Layer_2" data-name="Layer 2"><g id="Layer_1-2" data-name="Layer 1"><path class="cls-1" d="M401.51,91.9l0,0-.15-.14a5.32,5.32,0,0,1,2.76-9,26,26,0,0,0-1-6.5,4.51,4.51,0,0,1-4.08-1.2,1.34,1.34,0,0,1-.2-.21h0l-.15-.13a5.34,5.34,0,0,1-.09-7.44A24,24,0,0,0,394,62.7a5.36,5.36,0,0,1-2.72,1.35,4.49,4.49,0,0,1-4.34-1.13l-.17-.19h0l-.16-.15A5.3,5.3,0,0,1,385,58.24a27,27,0,0,0-6.56-1,5.33,5.33,0,0,1-4.28,4.12,4.51,4.51,0,0,1-4.35-1.13c0-.06-.11-.12-.16-.19h0l-.17-.16a4.82,4.82,0,0,1-.85-1.11,26.24,26.24,0,0,0-5.62,2.9,5.32,5.32,0,0,1-1.14,5.82,5.25,5.25,0,0,1-2.83,1.47,4.48,4.48,0,0,1-3.06-.22.44.44,0,0,1-.08.11l0,0A25.9,25.9,0,0,0,353,74.68a5.06,5.06,0,0,1,.92.74,5.32,5.32,0,0,1-1.75,8.69l-.49.17c0,.09,0,.19,0,.29v0c0,.27,0,.56-.07.85l0,.13a18.74,18.74,0,0,1-1.92,6.36h0l-.27.51a19.23,19.23,0,0,1-6.5,6.94l-.46.3h0a18.72,18.72,0,0,1-6,2.31l-.3.06-.17,0a18.35,18.35,0,0,1-3.19.28A18.87,18.87,0,0,1,320,97.46l-.1-.09-.2-.18a19.15,19.15,0,0,1-2.46-2.84,18.94,18.94,0,0,1-3.38-8.79l-.09-1v0c0-.37,0-.74,0-1.09s0-.67,0-1c0-.05,0-.11,0-.16v-.09c0-.24,0-.49.06-.74,0,0,0-.09,0-.14v-.08c0-.25.06-.5.1-.75l0-.17c0-.27.09-.54.15-.8v-.08c.07-.31.14-.59.21-.87l0,0c.08-.3.16-.59.26-.88v0c.09-.29.19-.58.3-.86l0,0c.1-.27.22-.56.34-.84a19.1,19.1,0,0,1,5.86-7.47,17.76,17.76,0,0,1,2-1.34l.07,0a18.9,18.9,0,0,1,6.36-2.29h0l.68-.09,1-.09v.69a.55.55,0,1,0,1.1,0v-9a.55.55,0,1,0-1.1,0v.93a25.75,25.75,0,0,0-9.48,2.36h0l-.93.46-.1,0c-.3.15-.6.31-.89.48l-.1.06a25.62,25.62,0,0,0-4.25,3l-.18.15-.61.57-.25.23-.56.56-.24.25-.54.59-.18.21-.13.15-.44.52a1.83,1.83,0,0,0-.13.16l-.08.11c-.32.41-.63.82-.92,1.22l-.09.13-.13.18c-.09.13-.17.27-.26.41l-.14.21c-.08.13-.17.25-.24.38l-.29.47,0,.05-.3.51-.28.52-.28.55c-.09.17-.17.34-.25.51s-.19.4-.27.61l-.05.09-.16.39c-.11.24-.2.48-.29.73l-.07.16c0,.08-.06.15-.08.22-.14.38-.27.76-.38,1.13a1,1,0,0,0-.05.16l0,.14c-.09.29-.17.58-.25.87,0,.09-.05.18-.07.28l0,.16c-.06.25-.12.5-.17.76s-.07.32-.1.47-.09.5-.13.75-.05.33-.08.49-.07.51-.1.77v.09c0,.13,0,.26,0,.38l-.06.85v.18a1.64,1.64,0,0,0,0,.23c0,.46,0,.87,0,1.27a26.33,26.33,0,0,0,26.3,26.3h.08c.38,0,.74,0,1.09,0h.33l1.11-.08.28,0,.92-.12.29,0c.36-.05.71-.12,1.06-.19l.33-.07c.31-.06.62-.13.92-.21l.23-.05,1-.29.35-.11c.33-.1.66-.21,1-.33l.18-.07.1,0c.26-.09.52-.2.77-.3l.12,0,.22-.09.91-.41.35-.17.69-.36.08,0,.27-.14.79-.46.38-.23c.24-.15.48-.3.71-.46s.28-.18.41-.28l.56-.39,0,0,.33-.24c.25-.18.48-.37.72-.56l.31-.26.06,0,.46-.4c.15-.14.31-.27.45-.41l.55-.52c.12-.12.24-.25.37-.37l.42-.45.51-.55c.12-.15.24-.29.37-.43l.34-.41.54-.68.26-.36,0-.08c.11-.14.21-.28.31-.43s.27-.39.4-.59l0,0,.25-.39v0a28.48,28.48,0,0,0,4.2-14c0-.45.11-1.68.15-2.12v-.16l0-.31a17,17,0,0,1,5-10.82,19,19,0,0,1,26.84,26.83,19.83,19.83,0,0,1-10.51,5.28,10.94,10.94,0,0,1-2.1.19l-.72,0c-.29,0-.57,0-.86,0a18.71,18.71,0,0,1-10.51-3.68l-.6-.51a20.53,20.53,0,0,1-5.51-7.21A28.83,28.83,0,0,1,357.18,99l.19.24,0,.06a25.53,25.53,0,0,0,3.31,4c.43.43.87.85,1.32,1.24a5.25,5.25,0,0,1,3.11-1,5.33,5.33,0,0,1,5.33,5.33v0a31.29,31.29,0,0,0,6.15.74,5.32,5.32,0,0,1,8.95-2.59,4.94,4.94,0,0,1,.88,1.16,26.33,26.33,0,0,0,5.85-2.89,5.32,5.32,0,0,1,7.06-6.87,25.63,25.63,0,0,0,3.05-5.79,4.23,4.23,0,0,1-.74-.6Z"/><path class="cls-2" d="M352.83,79.14A1.89,1.89,0,1,1,351,77.26,1.88,1.88,0,0,1,352.83,79.14Z"/><path class="cls-2" d="M351,69.39a2.71,2.71,0,1,1-2.71-2.71A2.72,2.72,0,0,1,351,69.39Z"/><path class="cls-2" d="M344.31,61.29a4.62,4.62,0,1,1-4.62-4.61A4.62,4.62,0,0,1,344.31,61.29Z"/><polygon class="cls-2" points="390.19 78.85 386.95 73.89 380.79 77.9 380.79 70.55 374.87 70.55 374.87 77.9 368.71 73.89 365.48 78.85 372.41 83.36 365.48 87.88 368.71 92.84 374.87 88.83 374.87 96.18 380.79 96.18 380.79 88.83 386.95 92.84 390.19 87.88 383.25 83.36 390.19 78.85"/><path class="cls-1" d="M3.14,9.36a2.88,2.88,0,0,1,0-5.76A2.92,2.92,0,0,1,6,6.48,2.92,2.92,0,0,1,3.14,9.36Zm2,36H1.11V17.28H5.18Z"/><path class="cls-1" d="M19.7,17.28c.13,1.5.25,3.6.25,4.8h.11c1.56-3.24,5.64-5.52,9.6-5.52,7.14,0,10.68,4.62,10.68,11.58V45.36H36.26V29.82c0-5.88-1.74-9.84-7.62-9.84-4.31,0-8.52,3.48-8.52,11v14.4H16.05V23.46c0-1.5-.06-4.26-.24-6.18Z"/><path class="cls-1" d="M54.56,17.28c.12,1.5.24,3.6.24,4.8h.12c1.56-3.24,5.64-5.52,9.6-5.52,7.14,0,10.68,4.62,10.68,11.58V45.36H71.12V29.82c0-5.88-1.74-9.84-7.62-9.84C59.18,20,55,23.46,55,31v14.4H50.9V23.46c0-1.5-.06-4.26-.24-6.18Z"/><path class="cls-1" d="M98.66,46.08c-8.7,0-14.94-6.3-14.94-14.76S90,16.56,98.66,16.56s15,6.3,15,14.76S107.42,46.08,98.66,46.08Zm0-26.1C92.18,20,88,25,88,31.32S92.18,42.6,98.66,42.6s10.68-5,10.68-11.28S105.2,20,98.66,20Z"/><path class="cls-1" d="M133.94,45.36h-4.5L118,17.28h4.56L131.66,41h.12L141,17.28h4.38Z"/><path class="cls-1" d="M169.4,27.24c0-4.86-2.64-7.26-7.5-7.26a11.94,11.94,0,0,0-8.34,3.3l-2.28-2.7a15.73,15.73,0,0,1,11-4c6.06,0,10.92,3.36,10.92,10.2v12.3a38.49,38.49,0,0,0,.48,6.3h-3.66a28,28,0,0,1-.42-4.56h-.12a11.29,11.29,0,0,1-10.2,5.28c-4.26,0-9.72-2.28-9.72-8.52,0-8.64,9.54-9.42,19.8-9.42Zm-1.2,4.08c-6.66,0-14.4.72-14.4,6.06,0,4,3.42,5.34,6.6,5.34,5.76,0,9-4.32,9-9.3v-2.1Z"/><path class="cls-1" d="M195.8,20.7h-7.92V37.08c0,4.2,1.74,5.16,4.2,5.16a8.36,8.36,0,0,0,3.54-.9l.18,3.54a13.18,13.18,0,0,1-4.8.84c-3,0-7.2-1.32-7.2-7.5V20.7H178V17.28h5.82V9.36h4.08v7.92h7.92Z"/><path class="cls-1" d="M204.26,9.36a2.92,2.92,0,0,1-2.88-2.88,2.88,2.88,0,1,1,5.76,0A2.92,2.92,0,0,1,204.26,9.36Zm2,36h-4.08V17.28h4.08Z"/><path class="cls-1" d="M230.06,46.08c-8.7,0-14.94-6.3-14.94-14.76s6.24-14.76,14.94-14.76,15,6.3,15,14.76S238.82,46.08,230.06,46.08Zm0-26.1c-6.48,0-10.62,5-10.62,11.34s4.14,11.28,10.62,11.28,10.68-5,10.68-11.28S236.6,20,230.06,20Z"/><path class="cls-1" d="M257.48,17.28c.12,1.5.24,3.6.24,4.8h.12c1.56-3.24,5.64-5.52,9.6-5.52,7.14,0,10.68,4.62,10.68,11.58V45.36H274V29.82c0-5.88-1.74-9.84-7.62-9.84-4.32,0-8.52,3.48-8.52,11v14.4h-4.08V23.46c0-1.5-.06-4.26-.24-6.18Z"/><path class="cls-2" d="M308,21.9c1.5-3.24,5.46-5.34,9.42-5.34,7.14,0,10.68,4.62,10.68,11.58V45.36H324V29.82c0-5.88-1.74-9.84-7.62-9.84-4.32,0-8.52,3.48-8.52,11v14.4H303.8V0h4.08V21.9Z"/><path class="cls-2" d="M359.06,45.36c-.12-1.5-.24-3.6-.24-4.8h-.12c-1.56,3.24-5.64,5.52-9.6,5.52-7.14,0-10.68-4.62-10.68-11.58V17.28h4.08V32.82c0,5.88,1.74,9.84,7.62,9.84,4.32,0,8.52-3.48,8.52-11V17.28h4.08v21.9c0,1.5.06,4.26.24,6.18Z"/><path class="cls-2" d="M377.72,40.62v4.74h-4.08V0h4.08V22.14h.12a12.76,12.76,0,0,1,10.62-5.58C397.22,16.56,403,23,403,31.32s-5.76,14.76-14.52,14.76a13,13,0,0,1-10.62-5.46ZM388,20c-6.3,0-10.8,4.92-10.8,11.34S381.74,42.6,388,42.6c6.78,0,10.62-5,10.62-11.28S394.82,20,388,20Z"/><path class="cls-3" d="M14.77,109.33C.38,101.76.27,91.49.27,75.47h29c0,16-.05,26.29-14.51,33.86"/><path class="cls-4" d="M14.77,109.33C.38,101.76.27,91.49.27,75.47h29C29.28,91.5,29.23,101.76,14.77,109.33Z"/><path class="cls-5" d="M28.3,76.53H1.21v1.39c0,6,0,11.69,1.67,16.89a21.06,21.06,0,0,0,4,7.31,25.11,25.11,0,0,0,7.85,6l0,0,0,0a25.24,25.24,0,0,0,7.81-6,21.06,21.06,0,0,0,4-7.32c1.68-5.23,1.67-11,1.67-17Z"/><path class="cls-3" d="M9,81a2.36,2.36,0,0,0-.72-.2,2,2,0,0,0,.49-.19,1.33,1.33,0,0,0,.52-.48,1.25,1.25,0,0,0,.2-.69,1.1,1.1,0,0,0-.18-.62,1.08,1.08,0,0,0-.56-.43,3,3,0,0,0-1.06-.14l-.76,0H5.65l-.56,0H4.83v.48a2.82,2.82,0,0,1,.64.08.05.05,0,0,1,0,0,4.14,4.14,0,0,1,0,.76c0,.6,0,1,0,1.3,0,1,0,1.74,0,2.15q0,.26,0,.45a2.81,2.81,0,0,1-.36.24V84l.93,0,1.36,0h0a2.82,2.82,0,0,0,.94-.14,2.59,2.59,0,0,0,.67-.38,2,2,0,0,0,.47-.58,1.51,1.51,0,0,0,.19-.76,1.4,1.4,0,0,0-.19-.73A1.08,1.08,0,0,0,9,81ZM6.85,79.4c0-.23,0-.43,0-.61l.41,0a1.34,1.34,0,0,1,.52.08.55.55,0,0,1,.26.26,1,1,0,0,1,.11.47,1.12,1.12,0,0,1-.1.47.75.75,0,0,1-.22.31.74.74,0,0,1-.35.14,2.57,2.57,0,0,1-.5,0H6.84Zm1.2,3.74a1,1,0,0,1-.76.31l-.44,0V81.12h.24a1.92,1.92,0,0,1,.71.11.83.83,0,0,1,.4.35,1.55,1.55,0,0,1-.14,1.57Z"/><path class="cls-3" d="M24.2,79.35a1.94,1.94,0,0,1,0-.54l0,0,.1,0,.52,0v-.5l-1.46,0c-.44,0-1.24,0-1.24,0v.5l.56,0,.06,0s0,0,0,0,0,.24.05.6c0,.12,0,.39,0,.8v.4c-.22,0-.69,0-1.39,0l-1.15,0v-.4c0-.51,0-.91,0-1.19a.81.81,0,0,1,0-.24l.07,0,.5,0h.06v-.5s-.81,0-1.24,0-.95,0-1.4,0l-1.24,0-1,0v.48l.56,0a.1.1,0,0,1,.08,0,.2.2,0,0,1,0,.09.45.45,0,0,1,0,.11c0,.15-.13.58-.31,1.31l-.42,1.61-.4-1c-.09-.21-.36-.88-.77-1.93-.09-.23-.2-.54-.31-.83h-.47l-.18.46-.64,1.54-.52,1.19-.25.6-.31-1.41-.22-1.12C12,79.12,12,79,12,78.93a.38.38,0,0,1,0-.1.12.12,0,0,1,0-.09.25.25,0,0,1,.12,0l.46,0V78.2l-1.4,0-1.2,0v.48a2.35,2.35,0,0,1,.46,0,.26.26,0,0,1,.09.11,4.77,4.77,0,0,1,.21.84l1,4.36h.69l.45-1.12c.63-1.48,1-2.37,1.18-2.75l1,2.65L15.52,84h.74c0-.18.19-.88.48-2s.51-1.9.66-2.4.25-.79.27-.82a.38.38,0,0,1,.09-.09.75.75,0,0,1,.28,0l.83,0c.06,0,.08,0,.09,0a.06.06,0,0,1,0,.06,2.14,2.14,0,0,1,.05.55v3.5a2.17,2.17,0,0,1-.05.54.05.05,0,0,1,0,0l-.09,0-.53,0V84c.45,0,1,0,1.47,0s.9,0,1.24,0v-.5l-.56,0-.06,0a.05.05,0,0,1,0,0s0-.16-.05-.6c0-.11,0-.38,0-.8v-.78l.18,0h1.25q.84,0,1.11,0V82c0,.53,0,.92,0,1.19a.81.81,0,0,1,0,.24s0,0-.07,0-.56,0-.56,0V84s.8,0,1.24,0l1.46,0v-.5l-.53,0-.09,0a.09.09,0,0,1,0,0,2,2,0,0,1,0-.56l0-.79V80.17Z"/><path class="cls-6" d="M7.87,100.7a19.29,19.29,0,0,0,1.29,1.53,12.53,12.53,0,0,0,5.64-2.78,12.79,12.79,0,0,1-2-2.21,12.38,12.38,0,0,1-1.29-11.86s.16-.34.18-.38a11,11,0,0,0-6.15,3.75C4.05,92.71,5.42,97.47,7.87,100.7Z"/><path class="cls-7" d="M13.17,85.86c-.67.09-1.32.21-2,.36a12.35,12.35,0,0,0-.42,6.27,12.66,12.66,0,0,1,2.91-.62,12.36,12.36,0,0,1,10.91,4.82,4.15,4.15,0,0,1,.24.34,11,11,0,0,0-.17-7.2C22,86.55,17.2,85.36,13.17,85.86Z"/><path class="cls-8" d="M23.37,97.87A19,19,0,0,0,24,96a12.44,12.44,0,0,0-5.22-3.5,12.47,12.47,0,0,1-.92,2.83,12.35,12.35,0,0,1-9.62,7l-.42,0a11,11,0,0,0,6.32,3.45C18.37,105.18,21.79,101.61,23.37,97.87Z"/><path class="cls-9" d="M44,96.56l-1.68-4.4L40,97.9c-.17.44-.35.88-.48,1.34H38.8c-.1-.48-.21-.89-.31-1.34l-1.61-6.68c-.13-.56-.39-.63-.67-.65l-.38,0v-.39c.57,0,1.12,0,1.7,0s1.13,0,1.7,0v.39l-.57,0c-.35,0-.62.09-.44.85l1.33,5.79h0l1.65-4c.42-1,.85-2.06,1.22-3.12h.43a15.64,15.64,0,0,0,.55,1.63l2.09,5.63h0L47.31,91c.08-.31-.11-.38-.62-.42l-.54,0v-.39c.47,0,.93,0,1.41,0s.95,0,1.42,0v.39l-.43,0a.5.5,0,0,0-.51.37l-2.06,7a13.27,13.27,0,0,0-.37,1.31h-.67c-.3-1-.62-1.78-1-2.68m9.44-6.1c-2.34,0-3.4,1.59-3.4,3.71,0,2.28,1.1,4.66,3.77,4.66,2.25,0,3.34-1.68,3.34-4.07,0-2.57-1.2-4.3-3.71-4.3m-4.84,4.2c0-2.68,1.94-4.74,5.06-4.74,2.88,0,4.93,1.56,4.93,4.43a5.06,5.06,0,0,1-5.21,5A4.52,4.52,0,0,1,48.58,94.66Zm21.16-2.92a2.3,2.3,0,0,1,.12-1c.08-.13.24-.17.57-.19l.57,0v-.39c-.4,0-.83,0-1.26,0s-.85,0-1.28,0l-3.53,7.21-3.55-7.21c-.42,0-.85,0-1.29,0s-.86,0-1.27,0v.39l.59,0c.32,0,.48.06.57.19a2.35,2.35,0,0,1,.11,1v5.82a2.38,2.38,0,0,1-.11,1c-.09.13-.25.16-.57.19l-.59,0v.39c.54,0,1.07,0,1.56,0s1,0,1.62,0v-.39l-.6,0c-.32,0-.48-.06-.56-.19a2.17,2.17,0,0,1-.12-1V91.67h0l3.73,7.62h.28c.24-.55.46-1.12.72-1.65l2.4-4.91c.17-.35.36-.71.56-1.06h0v5.89a2.33,2.33,0,0,1-.12,1c-.08.13-.24.16-.57.19l-.45,0v.39c.51,0,1.14,0,1.8,0s1.26,0,2,0v-.39l-.65,0c-.33,0-.49-.06-.57-.19a2.33,2.33,0,0,1-.12-1V91.74m3.52,5.82a2.17,2.17,0,0,1-.12,1c-.08.13-.24.16-.57.19l-.48,0v.39c.48,0,.93,0,1.44,0,.84,0,1.9,0,2.94,0s2.06,0,2.66,0A11.15,11.15,0,0,1,79.34,97h-.48c-.09.78-.26,1.35-.46,1.45a12.86,12.86,0,0,1-2.72.17,4.93,4.93,0,0,1-1.14-.1V94.87c.42,0,.92,0,1.57,0a3.53,3.53,0,0,1,1.42.15c.07,0,.1.16.11.33l.07.76h.4c0-.46,0-1,0-1.44s0-1,0-1.5h-.4l-.07.67c0,.17,0,.29-.11.34a3.84,3.84,0,0,1-1.42.14c-.65,0-1.14,0-1.57,0V90.79a5,5,0,0,1,1.14-.11,8.64,8.64,0,0,1,2.64.28c.1,0,.12.18.12.35v.84h.47a8.26,8.26,0,0,1,.22-2c-.53,0-1.14,0-1.74,0-.77,0-2,0-3.18,0-.77,0-1.54,0-2.28,0v.39l.64,0c.33,0,.49.06.57.19a2.15,2.15,0,0,1,.12,1v5.82m8.17,0a2.33,2.33,0,0,1-.12,1c-.08.13-.24.16-.57.19l-.6,0v.39c.55,0,1.09,0,1.57,0s1,0,1.62,0v-.39l-.59,0c-.33,0-.49-.06-.57-.19a2.17,2.17,0,0,1-.12-1v-6h0l6.35,7.59,1.21.21c0-.16,0-.32,0-.48V91.74a2.3,2.3,0,0,1,.12-1c.08-.13.25-.17.57-.19l.59,0v-.39c-.59,0-1.08,0-1.62,0s-1,0-1.56,0v.39l.6,0c.32,0,.48.06.56.19a2.3,2.3,0,0,1,.12,1V97.8h0l-6.44-7.66c-.24,0-.48,0-.73,0-.48,0-1,0-1.62,0v.39l.6,0c.33,0,.49.06.57.19a2.3,2.3,0,0,1,.12,1v5.82M92.13,93a11.26,11.26,0,0,0,1.73-2.93l-.17-.17c-.43.13-.87.28-1.31.39a6,6,0,0,1-1,2.89l.2.13.6-.31m8-.72a8.59,8.59,0,0,1,.19-1.84,6.7,6.7,0,0,0-2.44-.54c-1.61,0-3.45.92-3.45,2.93,0,1.35.84,2,3,2.22,1.38.16,2.37.51,2.37,1.74a2.18,2.18,0,0,1-2.41,2c-1.06,0-2.13-.49-2.19-1L95,96.9h-.43a12.23,12.23,0,0,1-.09,2,5.87,5.87,0,0,0,2.3.5c2,0,4.07-1.06,4.07-3.28,0-1.48-1.2-1.94-3.1-2.13-1.69-.19-2.22-.73-2.22-1.61a1.89,1.89,0,0,1,2-1.9,3.12,3.12,0,0,1,1.47.31c.5.3.55.43.59.78l.08.75h.43M38.53,77.24v3.15c.24,0,.55,0,.95,0,1.18,0,2.21-.47,2.21-1.75s-.9-1.54-2-1.54a4.81,4.81,0,0,0-1.13.11m0,7.75a4.8,4.8,0,0,0,1.13.1,2.16,2.16,0,0,0,2.44-2.22c0-1.43-.94-2-2.67-2-.38,0-.66,0-.9,0Zm-1.28-6.78a2.08,2.08,0,0,0-.13-1c-.08-.13-.24-.17-.56-.2l-.49,0v-.39l1.94,0c.79,0,1.54,0,2.6,0,1.26,0,2.42.42,2.42,1.8,0,1.18-1.15,1.94-2.26,2.11v0c1.38,0,2.71.58,2.71,2.1,0,1.27-1,3.06-3.94,3-.5,0-1,0-1.47,0s-1,0-1.47,0v-.3l.35-.13c.24-.09.3-.5.3-.85Zm18.48-1c.08-.13.24-.18.57-.2L57,77v-.39c-.7,0-1.34,0-2,0s-1.29,0-2,0V77l.64,0c.33,0,.49.07.57.2a2.28,2.28,0,0,1,.12,1V84a2.28,2.28,0,0,1-.12,1c-.08.13-.24.18-.57.2l-1,0a.94.94,0,0,1-.7-.32l-3.06-3.84c1.31-.25,2.63-1.09,2.63-2.51,0-.93-.56-2-2.72-2-.78,0-1.56,0-2.36,0s-1.58,0-2.29,0V77l.55,0c.33,0,.49.07.57.2a2.12,2.12,0,0,1,.12,1V84a2.12,2.12,0,0,1-.12,1c-.08.13-.24.18-.57.2l-.64,0v.39c.7,0,1.33,0,2,0s1.26,0,1.95,0v-.39l-.64,0c-.32,0-.49-.07-.57-.2a2.28,2.28,0,0,1-.12-1V77.27A5.07,5.07,0,0,1,48,77.11c1,0,2.12.39,2.12,1.79a2,2,0,0,1-1.75,1.82,5.28,5.28,0,0,1-1.18,0l-.08.16c.23.27.48.51.7.8l2.47,3.2c.18.24.38.46.56.71h1c.83,0,2.71,0,3.09,0,.62,0,1.26,0,2,0v-.39l-.65,0c-.33,0-.49-.07-.57-.2a2.28,2.28,0,0,1-.12-1V78.21A2.28,2.28,0,0,1,55.73,77.24Zm9.66,7.08a1.15,1.15,0,0,1-.07.54c-.08.23-.84.45-1.88.45a4.09,4.09,0,0,1-4.34-4.44A3.6,3.6,0,0,1,63,76.94a6.11,6.11,0,0,1,1.89.23c.63.22,1.12.43,1.12,1v.69h.42a7.87,7.87,0,0,1,.26-2,11,11,0,0,0-3.34-.53c-3.24,0-5.68,1.84-5.68,4.69,0,3.26,2.42,4.77,5.43,4.77a15.37,15.37,0,0,0,3.54-.67V83c0-.37,0-.43.15-.48l.39-.12,0-.33-1.66,0-1.65,0v.39l1.12.09c.35,0,.46.16.46.45v1.31m34.19.93v.39c-.7,0-1.33,0-2,0s-1.29,0-1.8,0v-.39l.45,0c.32,0,.48-.07.57-.2A2.28,2.28,0,0,0,97,84V78.15h0c-.2.35-.39.71-.57,1.06L94,84.12c-.26.53-.49,1.1-.73,1.64H93l-3.73-7.61h0V84a2.28,2.28,0,0,0,.12,1c.08.13.25.17.57.2l.59,0v.39c-.59,0-1.08,0-1.62,0s-.61,0-1.15,0-1.19,0-1.79,0-1.07,0-1.79,0v-.39l.63,0c.28,0,.55-.11.55-.26a3,3,0,0,0-.28-.83l-.62-1.5H80.55l-.38.87a7.81,7.81,0,0,0-.47,1.35c0,.28.23.33.65.37l.49,0v.39c-.64,0-1.15,0-1.55,0s-1,0-1.54,0c-.7,0-.76,0-1.38,0s-1.29,0-2,0v-.39l.65,0c.32,0,.48-.07.56-.2a2.28,2.28,0,0,0,.12-1V81.15c-.16,0-.52,0-1.12,0H71.44c-.59,0-1,0-1.12,0V84a2.08,2.08,0,0,0,.13,1c.08.13.24.18.56.2l.65,0v.39c-.7,0-1.34,0-2,0s-1.3,0-2,0v-.39l.65,0c.32,0,.48-.07.56-.2A2.12,2.12,0,0,0,69,84V78.21a2.12,2.12,0,0,0-.12-1c-.08-.13-.24-.18-.56-.2l-.65,0v-.39c.7,0,1.33,0,2,0s1.25,0,2,0V77L71,77c-.32,0-.48.07-.56.2a2.08,2.08,0,0,0-.13,1v2.31c.17,0,.53,0,1.12,0h3.15c.6,0,1,0,1.12,0V78.21a2.28,2.28,0,0,0-.12-1c-.08-.13-.24-.18-.56-.2l-.65,0v-.39c.7,0,1.33,0,2,0s1.26,0,2,0V77l-.65,0c-.33,0-.48.07-.57.2a2.28,2.28,0,0,0-.12,1V84a2.28,2.28,0,0,0,.12,1c.09.13.57.2.57.2h.56a.94.94,0,0,0,.73-.64l2.4-5.26c.42-.9.88-1.86,1.24-2.8H83l3.26,7.37c.12.26.27.61.43.88s.3.42.54.45h.64c.33,0,.49-.07.57-.2a2.28,2.28,0,0,0,.12-1V78.21a2.28,2.28,0,0,0-.12-1c-.08-.13-.24-.17-.57-.2l-.59,0v-.39c.42,0,.85,0,1.28,0s.86,0,1.28,0l3.56,7.22L97,76.61c.43,0,.84,0,1.28,0s.86,0,1.25,0V77l-.57,0c-.32,0-.48.07-.56.2a2.12,2.12,0,0,0-.12,1V84a2.12,2.12,0,0,0,.12,1c.08.13.24.18.56.2ZM84.19,82.1l-1.7-3.86L80.78,82.1Zm48.23-1.53a5,5,0,0,1-2.9,4.61,7,7,0,0,1-2.88.46c-.54,0-1.13,0-1.74,0s-1.2,0-1.83,0v-.3l.42-.21a.82.82,0,0,0,.33-.77V78.21a2.28,2.28,0,0,0-.12-1c-.08-.13-.24-.17-.56-.2l-.54,0-.72,0c-.33,0-.49.07-.57.2a2.28,2.28,0,0,0-.12,1v7.17c0,.15,0,.32,0,.48L120,85.65l-6.35-7.59h0v6a2.08,2.08,0,0,0,.13,1c.08.13.24.17.57.2l.59,0v.39c-.59,0-1.08,0-1.62,0s-.62,0-1.15,0-.94,0-1.54,0-1.07,0-1.8,0v-.39l.64,0c.28,0,.55-.11.55-.26a2.75,2.75,0,0,0-.29-.83l-.61-1.5h-3.88l-.38.87a7.81,7.81,0,0,0-.47,1.35c0,.28.23.33.65.37l.5,0v.39c-.65,0-1.16,0-1.56,0s-1,0-1.55,0v-.39l.5,0a1,1,0,0,0,.73-.64l2.4-5.26c.42-.9.88-1.86,1.24-2.8h.43L111,83.88c.12.26.27.61.43.88s.3.42.54.45h.39c.32,0,.48-.07.57-.2a2.28,2.28,0,0,0,.12-1V78.21a2.28,2.28,0,0,0-.12-1c-.09-.13-.25-.17-.57-.2l-.59,0v-.39c.59,0,1.13,0,1.61,0,.25,0,.49,0,.73,0l6.44,7.66h0V78.21a2.12,2.12,0,0,0-.12-1c-.08-.13-.24-.17-.57-.2l-.59,0v-.39c.54,0,1.08,0,1.56,0s1.15,0,1.75,0c.9,0,1.76,0,2.65,0s1.75,0,2.35,0C130.36,76.55,132.42,78.06,132.42,80.57ZM108.87,82.1l-1.7-3.86-1.71,3.86ZM131,80.94c0-3.22-1.92-3.81-4.34-3.81a8.33,8.33,0,0,0-1.54.11V85a8.33,8.33,0,0,0,1.54.11,5.15,5.15,0,0,0,2.19-.38A3.74,3.74,0,0,0,131,80.94Zm-16.65,10.8a2.15,2.15,0,0,1,.12-1c.08-.13.24-.18.56-.19l.65,0v-.39c-.7,0-1.33,0-2,0s-1.29,0-2,0v.39l.65,0c.32,0,.48.06.56.19a2.15,2.15,0,0,1,.12,1V94c-.16,0-.52,0-1.12,0h-3.14c-.6,0-1,0-1.13,0v-2.3a2.1,2.1,0,0,1,.13-1c.08-.13.24-.18.56-.19l.65,0v-.39c-.7,0-1.34,0-2,0s-1.28,0-2,0v.39l.65,0c.32,0,.49.06.57.19a2.3,2.3,0,0,1,.12,1v5.82a2.33,2.33,0,0,1-.12,1c-.08.13-.25.18-.57.19l-.65,0v.39c.71,0,1.34,0,2,0s1.26,0,2,0v-.39l-.65,0c-.32,0-.48-.06-.56-.19a2.13,2.13,0,0,1-.13-1V94.67c.17,0,.53,0,1.13,0h3.14c.6,0,1,0,1.12,0v2.89a2.17,2.17,0,0,1-.12,1c-.08.13-.24.18-.56.19l-.65,0v.39c.7,0,1.33,0,2,0s1.26,0,2,0v-.39l-.65,0c-.32,0-.48-.06-.56-.19a2.17,2.17,0,0,1-.12-1V91.74m6.72-1.28c-2.34,0-3.4,1.59-3.4,3.71,0,2.28,1.1,4.66,3.77,4.66,2.25,0,3.34-1.68,3.34-4.07,0-2.57-1.2-4.3-3.71-4.3m-4.84,4.2c0-2.68,1.94-4.74,5.06-4.74,2.88,0,4.93,1.56,4.93,4.43a5.06,5.06,0,0,1-5.21,5A4.52,4.52,0,0,1,116.21,94.66Zm16.64-2.36a8.59,8.59,0,0,1,.19-1.84,6.75,6.75,0,0,0-2.44-.54c-1.63,0-3.45.92-3.45,2.93,0,1.35.83,2,2.95,2.22,1.37.16,2.37.51,2.37,1.74a2.18,2.18,0,0,1-2.41,2c-1.07,0-2.13-.49-2.2-1l-.11-.87h-.43a12.23,12.23,0,0,1-.09,2,5.87,5.87,0,0,0,2.3.5c2,0,4.07-1.06,4.07-3.28,0-1.48-1.2-1.94-3.1-2.13-1.68-.19-2.22-.73-2.22-1.61a1.89,1.89,0,0,1,2-1.9,3.09,3.09,0,0,1,1.47.31c.5.3.55.43.59.78l.08.75h.44m4-1.51a5.44,5.44,0,0,1,1.38-.16c1.33,0,2.18.59,2.18,1.93a1.91,1.91,0,0,1-1.95,1.94,3,3,0,0,1-.88-.13l.13.47a4.43,4.43,0,0,0,.81.07,3,3,0,0,0,3.23-2.79c0-1.46-1.48-2-2.79-2-.72,0-1.5,0-2.29,0s-1.53,0-2.42,0v.39l.61,0c.33,0,.48.09.57.22a2,2,0,0,1,.14.95v5.82a2.33,2.33,0,0,1-.12,1c-.08.13-.25.18-.57.19l-.64,0v.39c.69,0,1.33,0,2,0s1.25,0,1.95,0v-.39l-.64,0c-.33,0-.49-.06-.57-.19a2.33,2.33,0,0,1-.12-1V90.79m8.21.95a2.15,2.15,0,0,1,.12-1c.08-.13.24-.18.57-.19l.64,0v-.39c-.7,0-1.33,0-2,0s-1.29,0-2,0v.39l.65,0c.32,0,.48.06.57.19a2.3,2.3,0,0,1,.12,1v5.82a2.33,2.33,0,0,1-.12,1c-.09.13-.25.18-.57.19l-.65,0v.39c.71,0,1.34,0,2,0s1.25,0,2,0v-.39l-.64,0c-.33,0-.49-.06-.57-.19a2.17,2.17,0,0,1-.12-1V91.74m5.48,5.82a2.38,2.38,0,0,1-.11,1c-.09.13-.25.18-.57.19l-.65,0v.39c.7,0,1.33,0,2,0s1.25,0,1.95,0v-.39l-.65,0c-.32,0-.48-.06-.57-.19a2.38,2.38,0,0,1-.11-1V92.07a12.84,12.84,0,0,1,0-1.3H154c.4,0,.51.12.53.43l.06,1H155a20.49,20.49,0,0,1,.09-2.09c-1,0-1.94,0-2.91,0h-1.95c-1,0-1.94,0-2.91,0a20.49,20.49,0,0,1,.09,2.09h.42l.06-1c0-.31.13-.43.53-.43h2.09a12.84,12.84,0,0,1,.05,1.3v5.49m20.91-.67c-.08.71-.17,1.58-.28,2.23-.59,0-1.65,0-2.65,0-1.21,0-2.1,0-2.94,0l-1.56,0h-.17c-.53,0-1.07,0-1.61,0s-1.07,0-1.8,0v-.39l.64,0c.28,0,.55-.1.55-.26a2.84,2.84,0,0,0-.29-.83l-.61-1.49h-3.88l-.38.87a7.36,7.36,0,0,0-.48,1.35c0,.27.23.32.65.36l.5,0v.39c-.64,0-1.16,0-1.55,0s-1,0-1.54,0v-.39l.49,0a1,1,0,0,0,.73-.63l2.4-5.26c.41-.91.87-1.87,1.24-2.8h.43l3.26,7.37c.12.25.27.61.43.88a.75.75,0,0,0,.54.44l.45,0a3,3,0,0,0,.83-.12.8.8,0,0,0,.34-.76V91.74a2.3,2.3,0,0,0-.12-1c-.08-.13-.24-.18-.57-.19l-.64,0v-.39c.7,0,1.33,0,2,0s1.25,0,2,0v.39l-.65,0c-.33,0-.49.06-.57.19a2.3,2.3,0,0,0-.12,1v6.77a4.9,4.9,0,0,0,1.13.1,10.58,10.58,0,0,0,3-.24,2.43,2.43,0,0,0,.28-.83l.16-.65Zm-11-1.26-1.69-3.87-1.72,3.87Z"/><path class="cls-5" d="M.27,60.72h3c1.43,0,3,.3,3,2.07a1.84,1.84,0,0,1-1.4,1.8v0a2,2,0,0,1,1.78,2c0,1.7-1.61,2.27-3.06,2.27H.27ZM2.06,64h1.3c.55,0,1.13-.23,1.13-.89s-.65-.85-1.21-.85H2.06Zm0,3.37H3.67c.56,0,1.2-.24,1.2-1s-.87-.9-1.45-.9H2.06Zm7.61-6.63h3.15c1.67,0,3.07.58,3.07,2.47a2.11,2.11,0,0,1-1.76,2.24l2.07,3.44H14.05l-1.7-3.26h-.89v3.26H9.67Zm1.79,3.37h1.06c.65,0,1.51,0,1.51-.91s-.74-.94-1.4-.94H11.46Zm7.27-3.37h1.8v8.15h-1.8Zm12.53,7.57a7.34,7.34,0,0,1-3.42.78,4.28,4.28,0,1,1,0-8.56,4.63,4.63,0,0,1,3.25,1.05l-1.27,1.38a2.49,2.49,0,0,0-2-.77,2.63,2.63,0,0,0,0,5.25,3.47,3.47,0,0,0,1.7-.41V65.69H28.07V64h3.19Zm3.61-7.57h1.8v3h3.48v-3H42v8.15h-1.8V65.35H36.67v3.52h-1.8Zm12.69,0H49l3.54,8.15h-2l-.7-1.73H46.69L46,68.87H44Zm.69,2.37-1,2.53h2Zm6.42-2.37h2.72L59.26,66h0l1.88-5.32h2.71v8.15h-1.8V62.62h0l-2.14,6.25H58.55l-2.06-6.25h0v6.25h-1.8Zm17.72,0h1.79v3h3.49v-3h1.79v8.15H77.67V65.35H74.18v3.52H72.39Zm11.19,0h5.53v1.66H85.37V63.9H88.9v1.65H85.37v1.66h3.95v1.66H83.58Zm11.58,0h1.48l3.55,8.15h-2l-.7-1.73H94.3l-.68,1.73h-2Zm.69,2.37-1,2.53h2Zm6.72-2.37h1.79v6.49h3.33v1.66h-5.12Zm7.68,1.59h-2.33V60.72h6.44v1.59H112v6.56h-1.79Zm6.53-1.59h1.79v3h3.49v-3h1.79v8.15h-1.79V65.35h-3.49v3.52h-1.79Z"/></g></g></svg>